<?xml version="1.0" encoding="UTF-8" standalone="no"?>
<!-- Created with Inkscape (http://www.inkscape.org/) -->
<svg xmlns:rdf="http://www.w3.org/1999/02/22-rdf-syntax-ns#" xmlns="http://www.w3.org/2000/svg" height="100%" width="100%" version="1.1" preserveAspectRatio="xMinYMin slice" xmlns:cc="http://creativecommons.org/ns#" xmlns:dc="http://purl.org/dc/elements/1.1/" viewBox="0 0 109.72855 126.03957">
 <metadata>
  <rdf:RDF>
   <cc:Work rdf:about="">
    <dc:format>image/svg+xml</dc:format>
    <dc:type rdf:resource="http://purl.org/dc/dcmitype/StillImage"/>
    <dc:title/>
   </cc:Work>
  </rdf:RDF>
 </metadata>
 <g opacity=".98" transform="translate(-9.0591 -1.0069)" fill="#acc93d">
  <path d="m104.62 122.75c-2.27-2.34-7.045-7.81-10.62-12.17-9.683-11.796-9.538-11.724-26.21-13.027-14.917-1.166-18.239-2.167-22.567-6.801-1.252-1.341-9.912-18.821-19.245-38.845-17.824-38.244-18.655-40.763-15.476-46.912 1.984-3.8355 5.551-4.4449 21.538-3.6802 14.724 0.7043 21.758 2.815 27.058 8.1197 4.091 4.0935 58.792 105.1 59.592 110.04 0.68552 4.2243-2.3074 7.5272-6.8209 7.5272-2.3715 0-4.1312-1.0315-7.25-4.25zm8.38-3.16c0-1.16-50.339-95.454-55.142-103.29-3.859-6.3008-16.622-10.276-33.037-10.292-8.957-0.0088-11.384 1.4297-10.433 6.185 1.0767 5.3835 32.723 72.235 35.584 75.17 3.1804 3.2622 8.1795 4.5282 18.141 4.5938 9.4654 0.06233 16.712 1.6727 20.488 4.5534 1.8029 1.3751 6.0787 5.9854 9.5019 10.245 11.157 13.88 14.897 17.1 14.897 12.83zm-43.021-33.237c-5.353-2.678-9.576-5.932-15.896-12.25-8.596-8.593-18.083-21.467-18.083-24.54 0-2.4685 3.1764-3.2554 4.4362-1.099 3.3934 5.8088 13.736 18.828 18.822 23.692 6.232 5.961 16.023 11.844 19.711 11.844 1.934 0 2.116-0.379 1.554-3.25-0.349-1.788-3.085-8.138-6.079-14.112-2.994-5.973-5.444-11.486-5.444-12.25 0-0.763 0.907-1.388 2.015-1.388 2.2917 0 4.1418 2.7185 10.037 14.748 4.8614 9.9201 6.1131 17.307 3.4344 20.267-2.605 2.8785-6.2703 2.4585-14.507-1.6623zm-36.591-52.287c-6.7444-2.8737-8.6671-12.941-3.465-18.143 2.3415-2.3415 3.784-2.9187 7.25-2.9008 6.721 0.035 10.827 4.356 10.827 11.396 0 6.8796-8.2793 12.346-14.612 9.648zm8.1718-7.5175c1.9731-3.0114 1.116-6.2839-2.0201-7.7128-4.9799-2.269-9.6748 4.1471-6.0033 8.2041 2.4505 2.7078 6.0726 2.486 8.0234-0.49133zm41.44 92.022c0-3.8651-1.699-7.3217-4.5011-9.1578-2.2723-1.4889-3.0795-1.5358-6.5747-0.38233-4.3249 1.4274-6.4548 0.52107-5.3769-2.2879 0.706-1.84 5.508-3.74 9.454-3.74 6.6088 0 13.276 8.7754 11.635 15.314-0.901 3.6-4.636 3.8-4.636 0.26z"/>
  <path d="m104.58 121.75c-2.8126-2.8875-7.9126-8.7226-11.333-12.967-3.4208-4.2443-7.5656-8.4129-9.2107-9.2636-1.907-0.986-7.835-1.869-16.378-2.437-14.234-0.948-17.232-1.873-21.851-6.743-3.387-3.57-35.504-72.428-36.307-77.839-0.4464-3.0138-0.1-4.7872 1.406-7.1953 2.55-4.0774 6.093-4.7816 20.041-3.9835 13.989 0.8004 22.944 3.5489 27.861 8.5515 2.452 2.4937 13.015 21.115 31.442 55.425 28.745 53.522 29.971 56.338 26.179 60.131-2.9727 2.9727-6.4066 1.9064-11.847-3.6786zm9.0082-1.124c0.29-0.76-11.89-24.497-27.076-52.754-29.183-54.317-31.014-57.107-39.174-59.717-2.113-0.6755-9.341-1.7243-16.062-2.3303-10.883-0.9812-12.497-0.9203-14.75 0.5558-1.806 1.1834-2.53 2.5446-2.53 4.7585 0 3.2744 31.79 72.836 34.826 76.206 3.1114 3.4529 6.6467 4.3944 19.174 5.1067 18.241 1.0372 19.59 1.8599 35.763 21.814 6.0677 7.4863 8.7315 9.2084 9.8273 6.3529zm-43.821-34.796c-3.15-1.709-8.521-5.635-11.935-8.723-10.127-9.161-23.041-26.577-21.126-28.491 1.5937-1.5937 3.3368-0.02464 8.6302 7.7681 9.3019 13.694 24.222 26.57 32.768 28.28l3.197 0.63939-0.57232-4.4055c-0.31763-2.445-3.0084-9.1283-6.0464-15.018-3.8047-7.3763-5.1953-11.036-4.5599-12 0.73504-1.1154 1.3245-0.89738 3.0082 1.1127 3.0539 3.646 10.6 19.061 11.944 24.398 2.4269 9.6382-4.242 12.444-15.307 6.4401zm-39.155-54.495c-4.509-4.508-4.66-10.494-0.382-15.078 6.7041-7.1827 19.396 0.03647 17.249 9.8112-1.6054 7.3095-11.679 10.455-16.867 5.2668zm10.384-3.343c3.684-3.684 1.421-10-3.584-10-5.218 0-7.491 7.433-3.193 10.443 2.937 2.058 4.37 1.964 6.777-0.443zm42.688 92.354c-0.379-0.37-0.688-2.12-0.688-3.88 0-1.7635-0.96933-4.4308-2.1606-5.9453-1.8849-2.3962-2.6826-2.6839-6.25-2.2536-2.2492 0.27126-4.7644 0.65914-5.5894 0.86195-0.95542 0.23487-1.5-0.35578-1.5-1.6269 0-1.4353 1.0971-2.3551 3.9072-3.2757 5.0063-1.6401 9.543-0.26508 13.109 3.9734 2.0952 2.49 2.5256 3.9238 2.2827 7.6051-0.28114 4.2617-1.5471 6.1117-3.1118 4.5471z"/>
  <path d="m106.77 123.75c-1.86-1.79-7.04-7.8-11.516-13.37-9.842-12.234-11.128-12.864-28.254-13.834-13.5-0.764-18.878-2.658-22.276-7.844-0.857-1.309-9.021-18.386-18.141-37.95-18.499-39.681-19.021-41.468-13.66-46.829 2.7039-2.7039 3.4725-2.9216 10.25-2.9033 8.9762 0.024268 19.755 1.4984 26.016 3.558 9.2472 3.042 10.561 5.0087 40.296 60.341 15.198 28.281 27.886 52.688 28.196 54.238 0.74725 3.7362-1.9405 7.8425-5.1333 7.8425-1.3552 0-3.8795-1.4192-5.7807-3.25zm7.039-3.4785c0.18-1.23-10.86-22.85-27.29-53.42-20.55-38.24-28.526-52.182-31.243-54.614-5.077-4.5456-11.725-6.2943-26.414-6.9492l-12.636-0.5634-1.724 2.6317c-1.1602 1.7706-1.5065 3.534-1.0585 5.3891 0.6965 2.8838 27.921 62.242 32.349 70.532 4.0156 7.5176 6.958 8.7809 22.738 9.7623 17.076 1.062 18.789 1.9502 29.777 15.436 10.146 12.452 12.425 14.781 13.969 14.272 0.67187-0.22121 1.3595-1.3345 1.5281-2.4741zm-42.4-34.241c-3.251-1.634-8.385-5.011-11.41-7.504-10.499-8.655-24.544-27.381-22.255-29.67 0.73119-0.73119 2.3375 0.87193 5.3089 5.2985 9.442 14.066 21.476 25.446 31.812 30.084 3.9497 1.7723 4.5144 1.8109 5.9212 0.40412 2.121-2.121 0.557-7.294-5.87-19.416-5.284-9.967-5.679-11.225-3.518-11.225 0.77966 0 3.923 4.9962 7.0983 11.282 6.4843 12.837 8.0903 20.083 4.9588 22.373-2.7656 2.0223-5.5314 1.6489-12.047-1.6262zm-38.636-53.587c-8.553-4.641-5.017-18.441 4.725-18.441 9.7788 0 13.076 14.065 4.355 18.575-3.4444 1.7812-5.61 1.7492-9.0798-0.1338zm7.8252-3.2065c1.329-0.886 3.4-4.673 3.4-6.214 0-1.678-4.688-6.02-6.5-6.02-2.266 0-6.5 4.53-6.5 6.955 0 4.1909 6.1587 7.5781 9.6003 5.2801zm43.4 88.816c0-1.1635-0.65323-3.6789-1.4516-5.5897-1.8382-4.3995-5.6427-6.0507-10.523-4.5671-3.8514 1.1708-5.9426 0.11173-3.6069-1.8267 2.5036-2.0778 8.9312-2.4554 12.284-0.72161 3.4924 1.806 6.5664 7.5211 6.1107 11.361-0.381 3.22-2.813 4.38-2.813 1.35z"/>
  <path d="m109.14 125.25c-1.2966-0.90244-6.0158-6.1663-10.487-11.698-9.322-11.53-12.154-14.377-15.653-15.752-1.375-0.54-8.478-1.363-15.784-1.829-14.397-0.917-18.206-2.263-22.039-7.788-1.023-1.473-9.187-18.429-18.144-37.679-18.55-39.871-19.042-41.624-13.071-46.609 4.141-3.4573 8.071-3.6876 22.799-1.3358 11.608 1.8538 18.983 4.9774 22.675 9.6038 2.113 2.649 32.47 58.121 54.634 99.841 3.3547 6.3136 3.7367 10.957 1.0979 13.345-2.232 2.02-3.0131 2.0082-6.0286-0.0907zm5.6771-4.5388c0.19-0.98-12.41-25.461-27.99-54.406-34.205-63.54-30.367-59.274-55.357-61.538-10.051-0.91035-12.515-0.85261-15 0.3514-2.729 1.3225-2.9655 1.8488-2.8805 6.4115 0.07884 4.2338 2.4839 10.074 16.223 39.395 16.811 35.878 19.714 40.586 25.621 41.56 1.6852 0.27791 8.4931 0.90293 15.129 1.3889 7.7298 0.56614 13.214 1.4782 15.264 2.5382 1.7598 0.91003 6.0057 5.1168 9.4352 9.3484 10.652 13.143 14.899 17.36 17.155 17.036 1.133-0.16279 2.213-1.099 2.4001-2.0804zm-42.32-34.592c-6.394-2.938-16.096-10.79-22.152-17.928-7.247-8.542-12.666-16.736-12.131-18.342 0.23256-0.69769 2.3787 1.6385 4.7692 5.1916 9.1003 13.526 19.518 23.627 29.724 28.818 5.0499 2.5689 7.8672 2.7193 9.1167 0.48658 1.341-2.397-0.267-7.354-6.046-18.644-2.759-5.389-4.739-10.077-4.399-10.417 0.835-0.835 0.771-0.93 5.918 8.716 10.695 20.039 8.88 28.403-4.8 22.118zm-40.788-55.13c-5.125-4.031-4.3-12.598 1.502-15.599 7.572-3.915 15.754 3.965 12.415 11.957-2.434 5.825-8.969 7.535-13.917 3.642zm9.653-2.061c4.902-3.856 2.471-11.927-3.593-11.927-4.195 0-6.772 2.533-6.772 6.655 0 3.723 2.892 7.345 5.865 7.345 1.0258 0 3.0508-0.93266 4.5-2.0726zm42.635 86.723c0-2.2175-0.87242-4.2953-2.5748-6.1322-2.392-2.581-2.9777-2.7376-8.25-2.206-5.1014 0.51431-5.479 0.42656-3.7341-0.86781 2.2542-1.6722 8.8228-1.9043 11.614-0.41035 1.0581 0.56631 2.6036 2.344 3.4343 3.9503 1.706 3.3 2.03 9.02 0.511 9.02-0.55 0-1-1.5093-1-3.354z"/>
 </g>
</svg>
